
<svg
viewBox="0 0 64 63"
fill="none"
xmlns="http://www.w3.org/2000/svg"
>
<g clip-path="url(#clip0_3_13339)">
  <path
    d="M1.94118 39.2281H38.4499V17.428C38.4499 17.1935 38.2533 17.0029 38.0116 17.0029H1.94118C1.69943 17.0029 1.50281 17.1935 1.50281 17.428V38.803C1.50281 39.0373 1.69956 39.2281 1.94118 39.2281ZM4.94706 35.3417H35.0058C35.3166 35.3417 35.5694 35.5869 35.5694 35.8882C35.5694 36.1895 35.3166 36.4347 35.0058 36.4347H4.94706C4.63631 36.4347 4.38343 36.1895 4.38343 35.8882C4.38343 35.5867 4.63631 35.3417 4.94706 35.3417ZM35.0058 32.5483H4.94706C4.63631 32.5483 4.38343 32.3031 4.38343 32.0018C4.38343 31.7004 4.63631 31.4552 4.94706 31.4552H35.0058C35.3166 31.4552 35.5694 31.7004 35.5694 32.0018C35.5694 32.3031 35.3166 32.5483 35.0058 32.5483ZM35.0058 28.662H4.94706C4.63631 28.662 4.38343 28.4168 4.38343 28.1155C4.38343 27.8141 4.63631 27.5689 4.94706 27.5689H35.0058C35.3166 27.5689 35.5694 27.8141 35.5694 28.1155C35.5694 28.4168 35.3166 28.662 35.0058 28.662ZM35.0058 24.7756H4.94706C4.63631 24.7756 4.38343 24.5304 4.38343 24.2291C4.38343 23.9277 4.63631 23.6825 4.94706 23.6825H35.0058C35.3166 23.6825 35.5694 23.9277 35.5694 24.2291C35.5694 24.5304 35.3166 24.7756 35.0058 24.7756ZM35.0058 20.8892H4.94706C4.63631 20.8892 4.38343 20.644 4.38343 20.3426C4.38343 20.0413 4.63631 19.7961 4.94706 19.7961H35.0058C35.3166 19.7961 35.5694 20.0413 35.5694 20.3426C35.5694 20.644 35.3166 20.8892 35.0058 20.8892Z"
    fill="#DCDBDE"
  />
  <path
    d="M35.0058 19.4318C35.5243 19.4318 35.9452 19.8399 35.9452 20.3427C35.9452 20.8455 35.5243 21.2536 35.0058 21.2536H4.94707C4.42857 21.2536 4.00769 20.8455 4.00769 20.3427C4.00769 19.8399 4.42857 19.4318 4.94707 19.4318H35.0058Z"
    fill="#525252"
  />
  <path
    d="M35.0058 23.3181C35.5243 23.3181 35.9452 23.7262 35.9452 24.229C35.9452 24.7318 35.5243 25.1399 35.0058 25.1399H4.94707C4.42857 25.1399 4.00769 24.7318 4.00769 24.229C4.00769 23.7262 4.42857 23.3181 4.94707 23.3181H35.0058Z"
    fill="#525252"
  />
  <path
    d="M35.0058 27.2045C35.5243 27.2045 35.9452 27.6126 35.9452 28.1154C35.9452 28.6182 35.5243 29.0263 35.0058 29.0263H4.94707C4.42857 29.0263 4.00769 28.6182 4.00769 28.1154C4.00769 27.6126 4.42857 27.2045 4.94707 27.2045H35.0058Z"
    fill="#525252"
  />
  <path
    d="M35.0058 31.091C35.5243 31.091 35.9452 31.4991 35.9452 32.0019C35.9452 32.5047 35.5243 32.9128 35.0058 32.9128H4.94707C4.42857 32.9128 4.00769 32.5047 4.00769 32.0019C4.00769 31.4991 4.42857 31.091 4.94707 31.091H35.0058Z"
    fill="#525252"
  />
  <path
    d="M35.0058 34.9772C35.5243 34.9772 35.9452 35.3854 35.9452 35.8881C35.9452 36.3909 35.5243 36.7991 35.0058 36.7991H4.94707C4.42857 36.7991 4.00769 36.3909 4.00769 35.8881C4.00769 35.3854 4.42857 34.9772 4.94707 34.9772H35.0058Z"
    fill="#525252"
  />
  <path
    d="M62.4971 32.1027L62.2876 31.5768H52.0392C50.071 31.5768 48.4697 30.024 48.4697 28.1154V23.2575C48.4697 22.9561 48.7226 22.7109 49.0334 22.7109H58.7737L58.5132 22.0592C58.0059 20.7782 56.7139 19.9175 55.2982 19.9175H47.0295C46.2354 19.9175 45.5892 20.544 45.5892 21.3142V39.228H51.0374C54.3154 39.228 57.1162 41.6026 57.5522 44.7514L57.6031 45.1191L57.9812 45.0632C58.0061 45.0595 58.0297 45.0576 58.0511 45.0576H62.059C62.3007 45.0576 62.4974 44.8669 62.4974 44.6325V41.2926H61.0571C60.1939 41.2926 59.4916 40.6117 59.4916 39.7746V38.8029C59.4916 37.9658 60.1939 37.2849 61.0571 37.2849H62.4974V32.1027H62.4971Z"
    fill="#FFC061"
  />
  <path
    d="M62.7665 36.6621V32.5908L62.5007 31.5158H57.6162C58.3533 35.8301 55.7375 41.0273 55.7375 41.0273C55.7375 41.0273 57.5597 43.5028 57.781 44.8522L57.8445 45.2394H62.2137C62.5185 45.2394 62.7665 44.999 62.7665 44.7033V41.7165V36.6621Z"
    fill="#E0931F"
  />
  <path
    d="M55.345 22.9901H58.8183L58.4643 22.1889L58.4525 22.1643L58.4551 22.1683C57.8818 20.7205 56.1348 18.6248 53.2914 19.5044C54.0904 20.5852 55.0076 21.7571 55.345 22.9901Z"
    fill="#E0931F"
  />
  <path
    d="M60.681 38.5331V40.0444C60.681 40.0936 60.7278 40.139 60.7785 40.139H62.4345V38.4387H60.7785C60.7278 38.4386 60.681 38.4839 60.681 38.5331Z"
    fill="#EDEDEE"
  />
  <path
    d="M49.5968 28.1154C49.5968 29.4212 50.6924 30.4837 52.0391 30.4837H61.8542L59.2057 23.8039H49.5968V28.1154Z"
    fill="#504B5A"
  />
  <path
    d="M51.0371 40.321C48.033 40.321 45.589 42.6909 45.589 45.604C45.589 48.5171 48.033 50.887 51.0371 50.887C54.0412 50.887 56.4852 48.5171 56.4852 45.604C56.4852 42.6909 54.0412 40.321 51.0371 40.321ZM53.6047 45.6041C53.6047 46.977 52.453 48.0938 51.0372 48.0938C49.6215 48.0938 48.4697 46.977 48.4697 45.6041C48.4697 44.2313 49.6215 43.1144 51.0372 43.1144C51.2829 43.1144 51.4901 43.2686 51.5671 43.4816C52.3846 43.6736 53.0281 44.2976 53.2261 45.0903C53.4457 45.1649 53.6047 45.3658 53.6047 45.6041Z"
    fill="#504B5A"
  />
  <path
    d="M51.5671 43.4815C51.3967 43.4415 51.2201 43.418 51.0372 43.418C49.7942 43.418 48.7828 44.3987 48.7828 45.604C48.7828 46.8094 49.7942 47.7901 51.0372 47.7901C52.2802 47.7901 53.2916 46.8094 53.2916 45.604C53.2916 45.4267 53.2673 45.2553 53.2261 45.0902C53.0281 44.2974 52.3846 43.6735 51.5671 43.4815Z"
    fill="#DCDBDE"
  />
  <path
    d="M46.5483 40.9514L47.2425 40.3211H22.7689L23.4632 40.9514C24.5668 41.9533 25.2858 43.2997 25.488 44.7423L25.5323 45.0576H27.4287V44.6325C27.4287 43.2597 28.5804 42.1428 29.9962 42.1428H36.0079C37.4237 42.1428 38.5754 43.2597 38.5754 44.6325V45.0576H44.4794L44.5237 44.7423C44.7257 43.2995 45.4448 41.9533 46.5483 40.9514Z"
    fill="#736F7B"
  />
  <path
    d="M44.4619 21.3142L44.4631 21.2535V20.8891H39.5773V39.228H44.4619V21.3142Z"
    fill="#A7A5AC"
  />
  <path
    d="M36.0079 43.2358H29.9962C29.202 43.2358 28.5558 43.8623 28.5558 44.6325V46.5757C28.5558 47.3457 29.2019 47.9723 29.9962 47.9723H36.0079C36.802 47.9723 37.4482 47.3457 37.4482 46.5757V44.6325C37.4482 43.8622 36.802 43.2358 36.0079 43.2358ZM30.4345 45.6041C30.4345 45.4622 30.496 45.3182 30.6012 45.2172C30.7034 45.1172 30.8518 45.0576 30.9982 45.0576C31.1445 45.0576 31.2932 45.1172 31.3972 45.2192C31.5003 45.3183 31.5618 45.4623 31.5618 45.6041C31.5618 45.7461 31.5003 45.8901 31.3952 45.991C31.2929 46.091 31.1445 46.1507 30.9982 46.1507C30.8518 46.1507 30.7032 46.0911 30.5992 45.9891C30.4959 45.89 30.4345 45.7461 30.4345 45.6041Z"
    fill="#A7A5AC"
  />
  <path
    d="M18.9745 40.321C15.9704 40.321 13.5264 42.6909 13.5264 45.604C13.5264 48.5171 15.9704 50.887 18.9745 50.887C21.9786 50.887 24.4226 48.5171 24.4226 45.604C24.4226 42.6909 21.9786 40.321 18.9745 40.321ZM21.5421 45.6041C21.5421 46.977 20.3904 48.0938 18.9746 48.0938C17.5589 48.0938 16.4071 46.977 16.4071 45.6041C16.4071 44.2313 17.5589 43.1144 18.9746 43.1144C19.2202 43.1144 19.4275 43.2686 19.5045 43.4816C20.322 43.6736 20.9655 44.2976 21.1635 45.0903C21.3831 45.1649 21.5421 45.3658 21.5421 45.6041Z"
    fill="#504B5A"
  />
  <path
    d="M19.5045 43.4815C19.3342 43.4415 19.1575 43.418 18.9746 43.418C17.7316 43.418 16.7202 44.3987 16.7202 45.604C16.7202 46.8094 17.7316 47.7901 18.9746 47.7901C20.2176 47.7901 21.229 46.8094 21.229 45.604C21.229 45.4267 21.2047 45.2553 21.1635 45.0902C20.9655 44.2974 20.322 43.6735 19.5045 43.4815Z"
    fill="#DCDBDE"
  />
  <path
    d="M6.95105 40.321C3.94693 40.321 1.50293 42.6909 1.50293 45.604C1.50293 48.5171 3.94693 50.887 6.95105 50.887C9.95518 50.887 12.3992 48.5171 12.3992 45.604C12.3992 42.6909 9.95518 40.321 6.95105 40.321ZM9.51855 45.6041C9.51855 46.977 8.3668 48.0938 6.95105 48.0938C5.5353 48.0938 4.38355 46.977 4.38355 45.6041C4.38355 44.2313 5.5353 43.1144 6.95105 43.1144C7.19668 43.1144 7.40393 43.2686 7.48093 43.4816C8.29855 43.6736 8.94193 44.2976 9.13993 45.0903C9.35955 45.1649 9.51855 45.3658 9.51855 45.6041Z"
    fill="#504B5A"
  />
  <path
    d="M7.48103 43.4815C7.31065 43.4415 7.13403 43.418 6.95115 43.418C5.70815 43.418 4.69678 44.3987 4.69678 45.604C4.69678 46.8094 5.70815 47.7901 6.95115 47.7901C8.19415 47.7901 9.20553 46.8094 9.20553 45.604C9.20553 45.4267 9.18128 45.2553 9.14003 45.0902C8.94203 44.2974 8.29853 43.6735 7.48103 43.4815Z"
    fill="#DCDBDE"
  />
  <path
    d="M57.446 28.3913C57.4363 28.3187 57.4285 28.2683 57.4239 28.2459C57.0375 26.4143 56.2491 24.6719 55.0021 23.2393L48.9915 23.1431L48.9084 28.0274C48.8758 29.9372 50.6694 31.5199 52.9061 31.5558C52.9061 31.5558 57.6953 31.6372 57.7041 31.6375C57.815 31.6393 57.537 29.0633 57.446 28.3913Z"
    fill="#736F7B"
  />
  <path
    d="M64 32.0018V44.6325C64 45.671 63.1295 46.515 62.0588 46.515H58.0509C58.0083 46.515 57.9657 46.5113 57.9244 46.5053C57.4685 49.7978 54.554 52.3445 51.0371 52.3445C47.5228 52.3445 44.6121 49.8026 44.1511 46.515H38.951V46.5757C38.951 48.1496 37.6309 49.4298 36.0078 49.4298H29.996C28.3729 49.4298 27.0527 48.1496 27.0527 46.5757V46.515H25.8604C25.3995 49.8026 22.4888 52.3445 18.9744 52.3445C16.4106 52.3445 14.1675 50.9904 12.9626 48.9816C11.7577 50.9904 9.51462 52.3445 6.95087 52.3445C3.11862 52.3445 0 49.3204 0 45.6042C0 43.6659 0.849125 41.9158 2.2055 40.6855H1.94125C0.870375 40.6855 0 39.8414 0 38.8031V17.4279C0 16.3895 0.8705 15.5455 1.94125 15.5455H38.0117C39.0826 15.5455 39.953 16.3896 39.953 17.4279V19.4318H41.0802V13.7772C41.0802 13.2415 40.8649 12.7387 40.4754 12.3598L39.3519 11.2704C38.9849 10.9145 38.9849 10.3389 39.3519 9.98297C39.7189 9.62709 40.3125 9.62709 40.6795 9.98297L41.803 11.0724C42.5483 11.7951 42.959 12.7557 42.959 13.7772V19.4318H44.8201C45.3599 18.8367 46.1502 18.4602 47.0294 18.4602H55.298C57.3307 18.4602 59.1856 19.6965 59.9157 21.5353L63.9374 31.6751C63.9399 31.6812 63.9411 31.6884 63.9436 31.6945C63.9511 31.7127 63.9574 31.7322 63.9624 31.7504C63.9661 31.7625 63.9699 31.7746 63.9724 31.7881C63.9761 31.8038 63.9799 31.8197 63.9836 31.8355C63.9861 31.8512 63.9886 31.8683 63.9911 31.8841C63.9924 31.8962 63.9949 31.9095 63.9961 31.923C63.9974 31.9424 63.9986 31.9607 63.9986 31.9801C63.9988 31.9872 64 31.9945 64 32.0018ZM62.1214 44.6325V41.657H61.0568C59.9859 41.657 59.1155 40.8129 59.1155 39.7746V38.803C59.1155 37.7645 59.986 36.9205 61.0568 36.9205H62.1214V32.1706L62.03 31.941H52.0392C49.8638 31.941 48.094 30.2249 48.094 28.1153V23.2574C48.094 22.7546 48.5149 22.3465 49.0334 22.3465H58.225L58.1624 22.1898C57.7103 21.0482 56.5592 20.2818 55.298 20.2818H47.0294C46.442 20.2818 45.9647 20.7444 45.9647 21.3141V38.8636H51.0371C54.554 38.8636 57.4685 41.4104 57.9244 44.7028C57.9657 44.6968 58.0083 44.6931 58.0509 44.6931H62.0588C62.0938 44.6933 62.1214 44.6665 62.1214 44.6325ZM62.1214 39.8353V38.7422H61.0568C61.0241 38.7422 60.9941 38.7713 60.9941 38.803V39.7746C60.9941 39.8061 61.0241 39.8353 61.0568 39.8353H62.1214ZM61.3073 30.1193L58.9476 24.1683H49.9726V28.1155C49.9726 29.2207 50.8994 30.1193 52.0391 30.1193H61.3073ZM56.1096 45.6042C56.1096 42.8922 53.8339 40.6855 51.0373 40.6855C48.2406 40.6855 45.9649 42.8923 45.9649 45.6042C45.9649 48.3161 48.2406 50.5228 51.0373 50.5228C53.8339 50.5228 56.1096 48.3161 56.1096 45.6042ZM46.2916 40.6854H39.0137H23.7201C24.8599 41.7202 25.6401 43.1204 25.8605 44.6933H27.0529V44.6325C27.0529 43.0586 28.373 41.7785 29.9961 41.7785H36.0079C37.631 41.7785 38.9511 43.0586 38.9511 44.6325V44.6933H44.1512C44.3716 43.1205 45.152 41.7202 46.2916 40.6854ZM44.0861 21.3142C44.0861 21.2936 44.0874 21.2741 44.0874 21.2535H39.953V38.8637H44.0861V21.3142ZM38.0744 38.8637V17.4279C38.0744 17.3939 38.0469 17.3672 38.0117 17.3672H1.94125C1.90612 17.3672 1.87863 17.3939 1.87863 17.4279V38.803C1.87863 38.837 1.90612 38.8637 1.94125 38.8637H38.0744ZM37.0724 46.5757V44.6325C37.0724 44.063 36.5953 43.6002 36.0078 43.6002H29.996C29.4086 43.6002 28.9314 44.0628 28.9314 44.6325V46.5757C28.9314 47.1453 29.4085 47.6081 29.996 47.6081H36.0078C36.5953 47.6081 37.0724 47.1453 37.0724 46.5757ZM24.047 45.6042C24.047 42.8922 21.7712 40.6855 18.9746 40.6855C16.178 40.6855 13.9023 42.8923 13.9023 45.6042C13.9023 48.3161 16.178 50.5228 18.9746 50.5228C21.7712 50.5228 24.047 48.3161 24.047 45.6042ZM14.229 40.6854H11.6965C12.1925 41.1347 12.6195 41.6546 12.9628 42.2266C13.306 41.6546 13.7331 41.1348 14.229 40.6854ZM12.0235 45.6042C12.0235 42.8922 9.74775 40.6855 6.95113 40.6855C4.1545 40.6855 1.87875 42.8923 1.87875 45.6042C1.87875 48.3161 4.1545 50.5228 6.95113 50.5228C9.74775 50.5228 12.0235 48.3161 12.0235 45.6042ZM52.1017 45.6042C52.1017 46.1738 51.6246 46.6365 51.0371 46.6365C50.4496 46.6365 49.9725 46.1739 49.9725 45.6042C49.9725 45.0345 50.4496 44.5718 51.0371 44.5718C51.5556 44.5718 51.9765 44.1637 51.9765 43.6609C51.9765 43.1581 51.5556 42.75 51.0371 42.75C49.414 42.75 48.0939 44.0301 48.0939 45.6041C48.0939 47.178 49.414 48.4581 51.0371 48.4581C52.6602 48.4581 53.9804 47.178 53.9804 45.6041C53.9804 45.1013 53.5595 44.6931 53.041 44.6931C52.5226 44.6933 52.1017 45.1013 52.1017 45.6042ZM30.998 44.6933C30.7512 44.6933 30.5082 44.7905 30.3342 44.9604C30.1589 45.1293 30.0588 45.3648 30.0588 45.6041C30.0588 45.8433 30.159 46.079 30.3342 46.2477C30.5084 46.4178 30.7514 46.5148 30.998 46.5148C31.2446 46.5148 31.4878 46.4176 31.6618 46.2477C31.8371 46.0788 31.9373 45.8432 31.9373 45.6041C31.9373 45.3648 31.837 45.1292 31.6618 44.9604C31.4878 44.7904 31.2447 44.6933 30.998 44.6933ZM20.0391 45.6042C20.0391 46.1738 19.562 46.6365 18.9745 46.6365C18.3871 46.6365 17.9099 46.1739 17.9099 45.6042C17.9099 45.0345 18.387 44.5718 18.9745 44.5718C19.493 44.5718 19.9139 44.1637 19.9139 43.6609C19.9139 43.1581 19.493 42.75 18.9745 42.75C17.3514 42.75 16.0312 44.0301 16.0312 45.6041C16.0312 47.178 17.3514 48.4581 18.9745 48.4581C20.5976 48.4581 21.9177 47.178 21.9177 45.6041C21.9177 45.1013 21.4969 44.6931 20.9784 44.6931C20.4599 44.6931 20.0391 45.1013 20.0391 45.6042ZM8.01562 45.6042C8.01562 46.1738 7.5385 46.6365 6.951 46.6365C6.3635 46.6365 5.88637 46.1739 5.88637 45.6042C5.88637 45.0345 6.3635 44.5718 6.951 44.5718C7.4695 44.5718 7.89038 44.1637 7.89038 43.6609C7.89038 43.1581 7.4695 42.75 6.951 42.75C5.32788 42.75 4.00775 44.0301 4.00775 45.6041C4.00775 47.178 5.32788 48.4581 6.951 48.4581C8.57413 48.4581 9.89425 47.178 9.89425 45.6041C9.89425 45.1013 9.47338 44.6931 8.95487 44.6931C8.43637 44.6931 8.01562 45.1013 8.01562 45.6042Z"
    fill="#525252"
  />
</g>
<defs>
  <clipPath id="clip0_3_13339">
    <rect width="64" height="62.0606" fill="white" />
  </clipPath>
</defs>
</svg>
